<?xml version="1.0" encoding="UTF-8" standalone="no"?>
<!-- Created with Inkscape (http://www.inkscape.org/) -->

<svg
   xmlns:dc="http://purl.org/dc/elements/1.1/"
   xmlns:cc="http://creativecommons.org/ns#"
   xmlns:rdf="http://www.w3.org/1999/02/22-rdf-syntax-ns#"
   xmlns:svg="http://www.w3.org/2000/svg"
   xmlns="http://www.w3.org/2000/svg"
   xmlns:sodipodi="http://sodipodi.sourceforge.net/DTD/sodipodi-0.dtd"
   xmlns:inkscape="http://www.inkscape.org/namespaces/inkscape"
   width="321.76654mm"
   height="54.83831mm"
   viewBox="0 0 321.76654 54.83831"
   version="1.1"
   id="svg8"
   inkscape:version="0.92.4 (5da689c313, 2019-01-14)"
   sodipodi:docname="mkds_logo.svg">
  <defs
     id="defs2" />
  <sodipodi:namedview
     id="base"
     pagecolor="#ffffff"
     bordercolor="#666666"
     borderopacity="1.0"
     inkscape:pageopacity="0.0"
     inkscape:pageshadow="2"
     inkscape:zoom="0.53802362"
     inkscape:cx="866.38832"
     inkscape:cy="395.56846"
     inkscape:document-units="mm"
     inkscape:current-layer="layer1"
     showgrid="false"
     inkscape:window-width="1920"
     inkscape:window-height="1017"
     inkscape:window-x="-8"
     inkscape:window-y="-8"
     inkscape:window-maximized="1"
     fit-margin-top="0"
     fit-margin-left="0"
     fit-margin-right="0"
     fit-margin-bottom="0" />
  <metadata
     id="metadata5">
    <rdf:RDF>
      <cc:Work
         rdf:about="">
        <dc:format>image/svg+xml</dc:format>
        <dc:type
           rdf:resource="http://purl.org/dc/dcmitype/StillImage" />
        <dc:title />
      </cc:Work>
    </rdf:RDF>
  </metadata>
  <g
     inkscape:label="Capa 1"
     inkscape:groupmode="layer"
     id="layer1"
     style="display:inline"
     transform="translate(59.32033,-120.82147)">
    <path
       style="fill:none;fill-opacity:1;stroke:#ffffff;stroke-width:2.332;stroke-linecap:butt;stroke-linejoin:miter;stroke-miterlimit:4;stroke-dasharray:none;stroke-opacity:1"
       d="m -12.76212,144.50603 7.2496861,-21.99962 H 15.134137 l 7.182868,21.99962 H 10.824416 l -5.9467472,-17.72331 -6.2140164,17.72331 z"
       id="path832"
       inkscape:connector-curvature="0"
       sodipodi:nodetypes="cccccccc" />
    <path
       style="fill:none;stroke:#ffffff;stroke-width:2.332;stroke-linecap:butt;stroke-linejoin:miter;stroke-miterlimit:4;stroke-dasharray:none;stroke-opacity:1"
       d="M 23.98744,144.45591 V 122.473 l 24.254708,0.13363 c 4.993063,0.0275 8.084073,1.90327 9.567354,3.0996 2.208358,1.78114 1.683171,5.01563 0.325716,7.171 -1.510798,2.39885 -4.603032,4.42923 -4.603032,4.42923 0,0 4.821661,4.7663 7.137997,7.14945 H 47.841246 l -8.771453,-8.45908 c 4.876213,-1.17439 6.334172,-2.8018 6.046972,-4.66051 -0.139014,-1.82482 -1.243943,-2.58714 -2.620912,-3.05021 h -6.614919 v 16.1698 z"
       id="path834"
       inkscape:connector-curvature="0"
       sodipodi:nodetypes="ccsssccccccccc" />
    <path
       style="fill:none;stroke:#ffffff;stroke-width:2.332;stroke-linecap:butt;stroke-linejoin:miter;stroke-miterlimit:4;stroke-dasharray:none;stroke-opacity:1"
       d="m 62.334298,144.62727 v -22.09952 h 11.938294 v 22.09952 z"
       id="path838"
       inkscape:connector-curvature="0"
       sodipodi:nodetypes="ccccc" />
    <g
       id="g829"
       style="stroke-width:2.332;stroke-miterlimit:4;stroke-dasharray:none;stroke:#ffffff;stroke-opacity:1">
      <ellipse
         ry="3.8053405"
         rx="5.2862363"
         cy="133.55475"
         cx="93.660927"
         id="path844"
         style="opacity:1;fill:none;fill-opacity:1;fill-rule:nonzero;stroke:#ffffff;stroke-width:2.332;stroke-linecap:butt;stroke-linejoin:miter;stroke-miterlimit:4;stroke-dasharray:none;stroke-dashoffset:0;stroke-opacity:1;paint-order:normal" />
      <ellipse
         style="opacity:1;fill:none;fill-opacity:1;fill-rule:nonzero;stroke:#ffffff;stroke-width:2.332;stroke-linecap:butt;stroke-linejoin:miter;stroke-miterlimit:4;stroke-dasharray:none;stroke-dashoffset:0;stroke-opacity:1;paint-order:normal"
         id="ellipse846"
         cx="93.660927"
         cy="133.55475"
         rx="17.389086"
         ry="12.217342" />
    </g>
    <path
       style="fill:none;stroke:#ffffff;stroke-width:2.332;stroke-linecap:butt;stroke-linejoin:miter;stroke-miterlimit:4;stroke-dasharray:none;stroke-opacity:1"
       d="m 115.64653,122.48219 h 11.80159 v 22.00838 h -11.80159 z"
       id="path848"
       inkscape:connector-curvature="0"
       sodipodi:nodetypes="ccccc" />
    <path
       style="fill:none;stroke:#ffffff;stroke-width:2.332;stroke-linecap:butt;stroke-linejoin:miter;stroke-miterlimit:4;stroke-dasharray:none;stroke-opacity:1"
       d="m 137.70047,122.43662 -9.98334,11.02697 9.93778,11.16368 h 13.12301 l -10.79915,-11.07254 10.98141,-11.02698 z"
       id="path850"
       inkscape:connector-curvature="0"
       sodipodi:nodetypes="ccccccc" />
    <path
       style="display:inline;fill:none;fill-opacity:1;stroke:#ffffff;stroke-width:2.332;stroke-linecap:butt;stroke-linejoin:miter;stroke-miterlimit:4;stroke-dasharray:none;stroke-opacity:1"
       d="m 152.36543,144.62727 7.24969,-21.99962 h 20.64657 l 7.18287,21.99962 h -11.49259 l -5.94675,-17.72331 -6.21402,17.72331 z"
       id="path832-2"
       inkscape:connector-curvature="0"
       sodipodi:nodetypes="cccccccc" />
    <path
       sodipodi:nodetypes="ccsssccccccccc"
       inkscape:connector-curvature="0"
       id="path869"
       d="M 189.18636,144.45591 V 122.473 l 24.25472,0.13363 c 4.99307,0.0275 8.08408,1.90327 9.56736,3.0996 2.20836,1.78114 1.68317,5.01563 0.32572,7.171 -1.5108,2.39885 -4.60304,4.42923 -4.60304,4.42923 0,0 4.82167,4.7663 7.13801,7.14945 h -12.82895 l -8.77146,-8.45908 c 4.87622,-1.17439 6.33418,-2.8018 6.04698,-4.66051 -0.13901,-1.82482 -1.24395,-2.58714 -2.62092,-3.05021 h -6.61492 v 16.1698 z"
       style="fill:none;stroke:#ffffff;stroke-width:2.332;stroke-linecap:butt;stroke-linejoin:miter;stroke-miterlimit:4;stroke-dasharray:none;stroke-opacity:1" />
    <path
       style="fill:none;stroke:#ffffff;stroke-width:8.81385838;stroke-linecap:butt;stroke-linejoin:miter;stroke-miterlimit:4;stroke-dasharray:none;stroke-opacity:1"
       d="m 854.27344,462.75781 v 22.66992 h 45.17773 v 60.94922 h 22.67188 22.66992 v -60.94922 h 45.17969 v -22.66992 l -67.84961,0.32813 z"
       id="path871"
       inkscape:connector-curvature="0"
       transform="scale(0.26458333)" />
    <path
       style="fill:none;stroke:#ffffff;stroke-width:2.332;stroke-linecap:butt;stroke-linejoin:miter;stroke-miterlimit:4;stroke-dasharray:none;stroke-opacity:1"
       d="m 219.39044,168.72008 -1.53678,6.36224 28.21525,0.0615 c 2.80628,0.006 5.93263,-1.22135 7.92977,-2.82767 1.99714,-1.60632 3.74484,-3.92638 3.68827,-5.90123 -0.0566,-1.97485 -1.16422,-3.1217 -2.82767,-3.99562 -1.66345,-0.87392 -3.41029,-1.09745 -5.85513,-1.45994 -2.48284,-0.32449 -6.01733,-0.43134 -6.93087,-0.44567 -0.91354,-0.0143 -1.39534,-0.87597 -1.29089,-1.53677 0.12072,-0.76374 1.31347,-1.08773 1.96708,-1.22943 0.65361,-0.1417 17.27338,0 17.27338,0 l 1.70455,-6.3636 h -28.60003 c -1.87557,0 -4.9674,0.82808 -6.85217,2.1221 -1.88477,1.29402 -3.69098,3.17446 -4.05709,5.04063 -0.36611,1.86617 -0.23118,3.12631 1.41384,4.73327 1.64502,1.60696 5.79728,2.17789 8.54448,2.33591 2.7472,0.15802 6.19201,-0.17341 6.57741,1.35236 0.3854,1.52577 -2.09002,1.75192 -2.09002,1.75192 z"
       id="path878"
       inkscape:connector-curvature="0"
       sodipodi:nodetypes="ccszzzczazccszzzzzcc" />
    <g
       id="g833"
       style="stroke-width:2.332;stroke-miterlimit:4;stroke-dasharray:none;stroke:#ffffff;stroke-opacity:1">
      <path
         sodipodi:nodetypes="cccsszczcc"
         inkscape:connector-curvature="0"
         id="path876"
         d="m 179.95192,151.29977 -6.25919,23.73281 c 0,0 27.55785,0.17387 28.25332,0.0869 0.22723,-0.0284 1.11683,-0.0308 2.29244,-0.22781 2.4224,-0.40596 6.05921,-1.23914 7.61795,-2.03245 2.31521,-1.17831 3.99895,-3.12959 4.08587,-3.56426 0.0869,-0.43467 2.95573,-11.04054 2.95573,-11.04054 0.21023,-2.5782 -0.61857,-3.33084 -0.86933,-3.65119 -0.25075,-0.32034 -3.79922,-3.19621 -8.78027,-3.30346 -1.13013,-0.0869 -29.29652,0 -29.29652,0 z"
         style="fill:none;stroke:#ffffff;stroke-width:2.332;stroke-linecap:butt;stroke-linejoin:miter;stroke-miterlimit:4;stroke-dasharray:none;stroke-opacity:1" />
      <path
         sodipodi:nodetypes="cszzzscc"
         inkscape:connector-curvature="0"
         id="path882"
         d="m 192.49682,157.55275 h 8.42155 c 0.31787,0 0.63317,0.3221 1.01427,0.82986 0.3811,0.50776 0.61142,1.30665 0.46103,2.91988 -0.15039,1.61323 -1.04808,4.51596 -1.87487,5.71682 -0.82679,1.20086 -1.21031,1.72119 -2.12075,1.72119 h -8.79037 z"
         style="fill:none;stroke:#ffffff;stroke-width:2.332;stroke-linecap:butt;stroke-linejoin:miter;stroke-miterlimit:4;stroke-dasharray:none;stroke-opacity:1" />
    </g>
    <g
       id="g4600"
       style="fill:#fffbfc;fill-opacity:1">
      <path
         sodipodi:nodetypes="ccccc"
         inkscape:connector-curvature="0"
         id="path4565"
         d="m 40.692875,156.11067 1.044093,-1.47402 136.651842,0 -0.44336,1.65466 z"
         style="opacity:1;fill:#fffbfc;fill-opacity:1;stroke:#ffffff;stroke-width:1.16497767;stroke-linecap:butt;stroke-linejoin:miter;stroke-miterlimit:4;stroke-dasharray:none;stroke-opacity:1" />
      <path
         sodipodi:nodetypes="ccccc"
         inkscape:connector-curvature="0"
         id="path4565-1"
         d="m 57.16585,163.27429 1.044093,-1.47402 118.579337,0 -0.44336,1.65466 z"
         style="display:inline;opacity:1;fill:#fffbfc;fill-opacity:1;stroke:#ffffff;stroke-width:1.16497767;stroke-linecap:butt;stroke-linejoin:miter;stroke-miterlimit:4;stroke-dasharray:none;stroke-opacity:1" />
      <path
         sodipodi:nodetypes="ccccc"
         inkscape:connector-curvature="0"
         id="path4565-1-7"
         d="m 66.57085,170.4049 1.044093,-1.47402 H 174.8836 l -0.44337,1.65466 z"
         style="display:inline;opacity:1;fill:#fffbfc;fill-opacity:1;stroke:#ffffff;stroke-width:1.16497767;stroke-linecap:butt;stroke-linejoin:miter;stroke-miterlimit:4;stroke-dasharray:none;stroke-opacity:1" />
    </g>
  </g>
  <g
     inkscape:groupmode="layer"
     id="layer2"
     inkscape:label="Capa 2"
     style="display:inline"
     transform="translate(59.32033,-120.82147)">
    <path
       style="fill:none;fill-opacity:1;stroke:#ffffff;stroke-width:8.81385838;stroke-linecap:butt;stroke-linejoin:miter;stroke-miterlimit:4;stroke-dasharray:none;stroke-opacity:1"
       d="m -210.99609,462.76367 -10.98438,83.7793 h 44.69922 l 5.05078,-38.95313 34.0918,22.22266 34.09375,-22.22266 5.050779,38.95313 h 44.699219 l -10.986328,-83.7793 h -45.20508 l -27.65234,23.10742 -27.65235,-23.10742 z"
       transform="scale(0.26458333)"
       id="path827"
       inkscape:connector-curvature="0" />
  </g>
</svg>
