<?xml version="1.0" encoding="UTF-8" standalone="no"?>
<!-- Generator: Adobe Illustrator 16.0.0, SVG Export Plug-In . SVG Version: 6.00 Build 0)  -->

<svg
   xmlns:dc="http://purl.org/dc/elements/1.1/"
   xmlns:cc="http://creativecommons.org/ns#"
   xmlns:rdf="http://www.w3.org/1999/02/22-rdf-syntax-ns#"
   xmlns:svg="http://www.w3.org/2000/svg"
   xmlns="http://www.w3.org/2000/svg"
   xmlns:sodipodi="http://sodipodi.sourceforge.net/DTD/sodipodi-0.dtd"
   xmlns:inkscape="http://www.inkscape.org/namespaces/inkscape"
   version="1.1"
   id="Layer_1"
   x="0px"
   y="0px"
   width="1922.667px"
   height="1920.923px"
   viewBox="0 0 1922.667 1920.923"
   enable-background="new 0 0 1922.667 1920.923"
   xml:space="preserve"
   sodipodi:docname="rueda.svg"
   inkscape:version="0.92.4 (5da689c313, 2019-01-14)"><metadata
   id="metadata9"><rdf:RDF><cc:Work
       rdf:about=""><dc:format>image/svg+xml</dc:format><dc:type
         rdf:resource="http://purl.org/dc/dcmitype/StillImage" /></cc:Work></rdf:RDF></metadata><defs
   id="defs7" /><sodipodi:namedview
   pagecolor="#ffffff"
   bordercolor="#666666"
   borderopacity="1"
   objecttolerance="10"
   gridtolerance="10"
   guidetolerance="10"
   inkscape:pageopacity="0"
   inkscape:pageshadow="2"
   inkscape:window-width="1920"
   inkscape:window-height="1017"
   id="namedview5"
   showgrid="false"
   inkscape:zoom="0.12285761"
   inkscape:cx="1192.8486"
   inkscape:cy="1415.3132"
   inkscape:window-x="-8"
   inkscape:window-y="-8"
   inkscape:window-maximized="1"
   inkscape:current-layer="Layer_1" />
<path
   fill="#00ACD0"
   d="M1375.083,1432.382l25.52,25.527c20.727-18.311,40.272-37.889,58.572-58.625l-25.506-25.426  C1415.419,1394.638,1395.833,1414.173,1375.083,1432.382z M1387.05,1127.058c-1.576-3.857-4.614-6.945-8.461-8.562l-77.518-32.602  c-1.992-0.83-4.055-1.223-6.087-1.223c-6.139,0-11.967,3.609-14.497,9.621c-34.859,82.766-102.35,150.184-185.178,184.982  c-3.846,1.617-6.896,4.686-8.471,8.562c-1.576,3.859-1.555,8.193,0.062,12.029l32.619,77.498c2.52,6.014,8.357,9.623,14.497,9.623  c2.021,0,4.085-0.395,6.065-1.225c110.388-46.287,200.369-136.205,246.895-246.678  C1388.595,1135.251,1388.626,1130.916,1387.05,1127.058z M1134.007,1371.267l-32.611-77.498  c87.09-36.58,156.883-106.238,193.578-193.381l77.518,32.602C1327.304,1240.287,1241.357,1326.248,1134.007,1371.267z   M1483.367,388.627c4.967-5.414,2.541-15.326-5.589-22.254c-8.005-6.883-18.29-7.877-22.966-2.217  c-4.678,5.744-2.24,15.718,5.453,22.312C1468.073,393.127,1478.318,394.059,1483.367,388.627z M961.302,0  C430.331,0,0,430.019,0,960.494c0,530.453,430.331,960.43,961.302,960.43c530.941,0,961.365-429.977,961.365-960.43  C1922.667,430.019,1492.244,0,961.302,0z M1571.607,420.749c7.145,8.813,14.299,17.627,14.299,17.627l-28.577,23.911  c0,0,13.21,1.493,26.399,3.027c13.469,1.887,26.959,3.774,26.959,3.774c1.068-0.767,29.022,41.414,29.054,41.414  c0,0-13.987-3.007-28.027-6.077c-6.854-1.326-13.718-2.676-18.892-3.69c-5.32-0.728-8.866-1.265-8.866-1.265  s-0.476,3.442-1.213,8.627c-0.995,5.287-2.312,12.275-3.681,19.286c-2.904,13.645-5.838,27.31-5.838,27.31  s-25.145-38.115-26.192-37.389c0,0,1.711-12.732,3.442-25.467c1.4-13.104,2.832-26.172,2.832-26.172l-28.64,23.934  c0,0-6.429-7.943-12.837-15.926c-7.145-7.344-14.33-14.685-14.33-14.685l58.336-54.54  C1555.835,404.449,1563.716,412.598,1571.607,420.749z M1498.744,342.257c29.521,23.725,34.561,61.259,16.818,77.974  c-18.58,17.647-50.33,10.846-76.201-9.725c-12.732-10.66-20.499-24.763-24.355-37.805c-4.045-12.838-3.039-26.026,4.375-36.126  c7.373-10.079,19.918-15.015,34.726-14.517C1468.747,322.7,1484.456,330.207,1498.744,342.257z M1437.225,300.325l-46.702,64.723  l-33.272-23.517l43.081-67.17L1437.225,300.325z M1270.027,206.797l30.723,14.059l10.451,4.834c0,0,31.18,14.039,30.766,14.869  c19.648,11.344,47.469,30.111,35.037,49.668c-8.535,13.479-32.943,13.041-32.943,13.041l8.68,35.691l-39.547-22.854  c0,0-2.956-10.971-5.9-21.898c-3.566-10.452-7.175-20.945-7.175-20.945c0.03,0,11.81,3.276,21.183,1.1  c9.488-1.992,9.716-15.906,2.488-19.515l-21.723-10.016l-25.237,52.881l-37.079-17.068L1270.027,206.797z M1162.511,172.061  l32.933,8.254l10.597,3.691l32.102,11.24c0,0-0.478,20.987-0.934,41.953c-1.141,20.716-2.26,41.454-2.26,41.454l-38.417-13.438  c0,0,0.073-16.879,0.167-33.76c-0.332-17.047-0.686-34.053-0.686-34.053c0-0.021-9.85,13.148-19.555,27.416  c-9.416,14.123-18.861,28.244-18.861,28.244l-39.455-9.726c0,0,10.732-17.896,21.496-35.794  C1151.084,189.812,1162.511,172.061,1162.511,172.061z M966.623,186.329c2.944-19.825,5.879-39.609,5.879-39.609l45.219,2.136  c0,0,26.232,22.129,25.953,22.938l30.08-17.048l44.814,6.614c0,0-1.213,20.179-2.427,40.419  c-1.461,20.157-2.944,40.314-2.944,40.314c0.229-1.161-40.138-6.782-40.138-6.782l0.581-36.456l-34.343,15.387  c0,0-7.352-6.015-15.024-11.281c-7.735-5.392-15.449-10.825-15.449-10.825l-6.896,35.877l-40.626-2.033  C961.302,225.979,963.957,206.154,966.623,186.329z M159.278,1103.376c-1.224,0.166-6.191-44.795-6.191-44.795l-5.049-44.836  l21.183-1.346l4.916,43.631l58.221-6.988c0.052,0,4.375,40.605,5.578,40.418l-57.765,10.225l9.167,43.113l-20.645,4.895  L159.278,1103.376z M199.831,1250.324c0,0-4.521-10.473-4.22-10.596l-10.359-32.725c-3.359-10.682-7.03-24.244-6.989-35.773  c0.291-11.613,5.257-21.338,16.373-23.973c7.756-1.865,15.657,1.721,21.526,5.641c5.713,4.002,10.441,8.107,10.441,8.107  c-0.767-0.082,19.815-31.604,19.815-31.604s2.022,11.322,5.112,22.355c3.473,10.928,6.926,21.898,6.926,21.898  s-5.319,9.686-10.618,19.412c-5.236,10.035-10.452,20.072-10.452,20.072s-5.039-10.762-13.625-15.822  c-8.523-5.102-17.845,4.688-15.48,12.111l7.248,23.061l55.121-20.115c0,0,0.695,2.467,2.302,5.93  c1.462,3.465,3.463,8.17,5.443,12.838c3.961,9.354,7.921,18.705,7.921,18.705l-73.39,31.5L199.831,1250.324z M264.076,1382.05  c-0.633,0.395-16.404-29.551-16.404-29.551l-5.423-10.078l-15.895-29.654c0,0,15.325-14.852,30.64-29.697  c15.667-14.248,31.335-28.494,31.335-28.494s3.93,9.395,7.911,18.789c4.075,9.395,9.312,18.145,9.312,18.145  s-11.728,11.904-23.476,23.809c-11.52,12.316-23.04,24.594-23.04,24.594s16.559-2.945,33.118-5.889  c16.342-3.32,32.704-6.68,32.704-6.68c-0.985,0.604,21.65,34.57,21.65,34.57s-20.427,5.33-40.833,10.639  C284.876,1377.281,264.076,1382.05,264.076,1382.05z M351.009,1500.216c-7.155-8.816-14.299-17.648-14.299-17.648l28.567-23.891  c0,0-13.189-1.535-26.41-3.068c-13.479-1.908-26.959-3.775-26.959-3.775c-1.025,0.768-28.981-41.393-29.032-41.393  c0,0,13.998,3.027,28.007,6.076c6.875,1.35,13.759,2.676,18.923,3.672c5.298,0.766,8.824,1.264,8.824,1.264s0.508-3.441,1.244-8.625  c1.006-5.248,2.343-12.279,3.691-19.268c2.903-13.666,5.838-27.312,5.838-27.312s25.155,38.139,26.15,37.371  c0,0-1.68,12.773-3.391,25.486c-1.411,13.107-2.841,26.191-2.841,26.191l28.618-23.93c0,0,6.449,7.941,12.868,15.906  c7.144,7.361,14.288,14.701,14.288,14.701l-58.293,54.539C366.801,1516.513,358.91,1508.343,351.009,1500.216z M423.861,1578.708  c-29.531-23.744-34.56-61.262-16.818-77.975c18.603-17.648,50.362-10.846,76.202,9.725c12.733,10.619,20.499,24.74,24.388,37.848  c4.012,12.795,3.027,25.986-4.408,36.125c-7.371,10.039-19.918,14.975-34.725,14.516  C453.879,1598.263,438.149,1590.755,423.861,1578.708z M485.379,1620.64l46.723-64.723l33.232,23.475l-43.083,67.213  L485.379,1620.64z M652.579,1714.187l-30.733-14.08l-10.441-4.83c0,0-31.201-14.041-30.765-14.871  c-19.628-11.301-47.469-30.111-35.057-49.666c8.554-13.48,32.952-13.045,32.983-13.045l-8.7-35.689l39.537,22.852  c0,0,2.976,10.971,5.91,21.92c3.567,10.475,7.144,20.967,7.144,20.967s-11.79-3.277-21.131-1.139  c-9.508,1.988-9.737,15.906-2.52,19.555l21.722,9.996l25.259-52.902l37.048,17.086L652.579,1714.187z M760.083,1748.904  l-32.921-8.254l-10.597-3.691l-32.113-11.199c0,0,0.509-20.986,0.965-41.951c1.109-20.76,2.24-41.477,2.24-41.477l38.417,13.418  c0,0-0.093,16.881-0.166,33.803c0.332,17.004,0.685,34.029,0.685,34.029s9.85-13.146,19.545-27.414  c9.425-14.102,18.872-28.227,18.872-28.227l39.465,9.729c0,0-10.754,17.855-21.526,35.793  C771.521,1731.171,760.083,1748.904,760.083,1748.904z M955.973,1734.656c-2.945,19.805-5.879,39.631-5.879,39.631l-45.218-2.178  c0,0-26.224-22.127-25.933-22.895l-30.101,17.023l-44.814-6.635c0,0,1.213-20.178,2.426-40.377  c1.472-20.178,2.965-40.334,2.965-40.334c-0.239,1.162,40.117,6.781,40.117,6.781l-0.591,36.438l34.373-15.348  c0,0,7.332,5.994,14.994,11.262c7.756,5.412,15.47,10.826,15.47,10.826l6.885-35.877l40.636,2.031  C961.302,1695.005,958.659,1714.832,955.973,1734.656z M961.302,1624.476c-367.1,0-664.553-297.277-664.553-663.982  c0-366.728,297.453-663.986,664.553-663.986c367.07,0,664.586,297.258,664.586,663.986  C1625.888,1327.199,1328.373,1624.476,961.302,1624.476z M1626.417,647.539c-4.106-9.333-9.342-18.146-9.342-18.105  c0,0,11.737-11.924,23.485-23.826c11.52-12.3,23.039-24.575,23.039-24.575s-16.58,2.944-33.117,5.89  c-16.342,3.338-32.674,6.656-32.674,6.656c0.954-0.58-21.701-34.529-21.701-34.529s20.447-5.328,40.863-10.678  c20.779-4.75,41.568-9.479,41.568-9.479c0.633-0.395,16.404,29.552,16.404,29.552l5.412,10.058l15.906,29.656  c0,0-15.304,14.847-30.641,29.715c-15.666,14.228-31.281,28.475-31.281,28.475S1630.357,656.954,1626.417,647.539z   M1671.137,769.164c-3.483-10.928-6.936-21.857-6.936-21.857s5.298-9.725,10.626-19.452c5.207-10.037,10.443-20.073,10.443-20.073  s5.049,10.784,13.635,15.843c8.523,5.081,17.846-4.706,15.48-12.13l-7.289-23.041l-55.08,20.095c0,0-0.727-2.446-2.302-5.89  c-1.492-3.524-3.494-8.19-5.476-12.857c-3.96-9.371-7.921-18.725-7.921-18.725l73.422-31.482l13.065,31.025  c0,0,4.521,10.473,4.22,10.557l10.369,32.724c3.38,10.7,7.021,24.241,7.01,35.772c-0.321,11.634-5.288,21.34-16.394,24.016  c-7.736,1.865-15.637-1.723-21.547-5.663c-5.672-3.982-10.431-8.088-10.431-8.088c0.798,0.062-19.815,31.604-19.815,31.604  S1674.207,780.219,1671.137,769.164z M1748.521,864.891l-58.263,7.01c0,0-4.355-40.605-5.526-40.397l57.765-10.245l-9.188-43.154  l20.665-4.854l9.396,44.318c1.213-0.188,6.21,44.772,6.21,44.772l5.02,44.813l-21.154,1.391L1748.521,864.891z M1400.488,463.074  l-25.404,25.488c20.749,18.227,40.295,37.805,58.586,58.541l25.506-25.444C1440.875,500.921,1421.236,481.408,1400.488,463.074z   M1095.31,641.69c82.009,34.403,149.188,101.946,184.318,185.313c2.529,6.012,8.357,9.621,14.496,9.621  c2.021,0,4.084-0.393,6.076-1.223l77.424-32.518c3.847-1.617,6.896-4.686,8.471-8.565c1.577-3.856,1.557-8.19-0.072-12.027  c-46.722-111.05-136.36-201.114-245.93-247.091c-1.99-0.829-4.054-1.223-6.075-1.223c-6.14,0-11.978,3.609-14.497,9.621  l-32.619,77.496c-1.617,3.839-1.639,8.172-0.062,12.051C1088.415,637.004,1091.464,640.073,1095.31,641.69z M1134.007,549.696  c107.35,45.044,192.405,131.438,237.531,238.692l-77.425,32.519c-36.687-87.06-105.628-157.173-192.718-193.714L1134.007,549.696z   M961.302,768.916c43.373,0,44.525-28.783,44.525-28.783s12.048-165.861,14.453-210.365c2.365-44.461-22.096-47.82-58.979-47.82  c-36.862,0-61.342,3.359-58.967,47.82c2.488,44.504,14.475,210.365,14.475,210.365S917.992,768.916,961.302,768.916z   M439.249,1532.337c-4.957,5.412-2.53,15.283,5.578,22.252c8.005,6.844,18.28,7.861,22.947,2.219  c4.697-5.744,2.239-15.719-5.433-22.312C454.522,1527.796,444.277,1526.904,439.249,1532.337z M488.967,1373.859l-25.528,25.467  c18.363,20.695,37.939,40.273,58.708,58.584l25.384-25.527C526.783,1414.214,507.269,1394.638,488.967,1373.859z M482.384,960.494  c0,36.809,3.297,61.322,47.873,58.895c44.461-2.426,210.457-14.412,210.457-14.412s28.878-1.225,28.878-44.482  c0-43.323-28.878-44.505-28.878-44.505s-165.996-11.984-210.457-14.391C485.681,899.17,482.384,923.642,482.384,960.494z   M547.531,488.583l-25.466-25.509c-20.728,18.334-40.263,37.909-58.626,58.585l25.528,25.444  C507.207,526.367,526.783,506.852,547.531,488.583z M1153.066,960.494c0,43.258,28.846,44.482,28.846,44.482  s165.985,11.986,210.468,14.412c44.524,2.428,47.873-22.086,47.873-58.895c0-36.852-3.349-61.324-47.873-58.896  c-44.482,2.406-210.468,14.391-210.468,14.391S1153.066,917.171,1153.066,960.494z M961.302,1152.07  c-43.311,0-44.493,28.803-44.493,28.803s-11.986,165.818-14.475,210.324c-2.375,44.504,22.105,47.779,58.967,47.779  c36.883,0,61.344-3.275,58.979-47.779c-2.405-44.506-14.453-210.324-14.453-210.324S1004.675,1152.07,961.302,1152.07z   M827.325,1279.275c-82.857-34.799-150.328-102.217-185.116-184.982c-2.53-6.012-8.368-9.621-14.506-9.621  c-2.021,0-4.095,0.393-6.076,1.223l-77.581,32.602c-3.847,1.617-6.895,4.684-8.472,8.562c-1.576,3.857-1.544,8.193,0.062,12.027  c46.453,110.43,136.455,200.328,246.937,246.678c1.98,0.83,4.043,1.225,6.065,1.225c6.139,0,11.977-3.609,14.507-9.623  l32.588-77.498c1.618-3.857,1.638-8.17,0.062-12.029C834.221,1283.96,831.172,1280.892,827.325,1279.275z M788.649,1371.267  c-107.328-45.02-193.38-130.98-238.516-238.277l77.581-32.602c36.633,87.143,106.427,156.801,193.526,193.381L788.649,1371.267z   M961.302,887.205c-40.428,0-73.329,32.809-73.329,73.289c0,40.459,32.901,73.287,73.329,73.287  c40.49,0,73.392-32.828,73.392-73.287C1034.694,920.014,1001.792,887.205,961.302,887.205z M803.146,543.6  c-2.53-6.012-8.368-9.621-14.507-9.621c-2.022,0-4.085,0.394-6.076,1.223c-109.631,46.018-199.259,136.081-245.91,247.091  c-1.617,3.858-1.638,8.171-0.062,12.048c1.576,3.859,4.625,6.928,8.471,8.545l77.404,32.518c1.991,0.83,4.054,1.223,6.076,1.223  c6.138,0,11.976-3.609,14.506-9.621c35.067-83.346,102.238-150.889,184.276-185.313c3.847-1.617,6.886-4.687,8.472-8.544  c1.576-3.879,1.556-8.191-0.062-12.051L803.146,543.6z M628.554,820.907l-77.404-32.519  c45.063-107.255,130.172-193.648,237.5-238.692l32.59,77.497C734.141,663.734,665.187,733.848,628.554,820.907z"
   id="path2"
   style="fill:#ffffff;fill-opacity:1" />
</svg>